<?xml version="1.0" encoding="utf-8"?>
<svg xmlns="http://www.w3.org/2000/svg" viewBox="0 0 500 500">
  <path d="M 250.647 -0.078 C 201.183 -0.078 152.835 14.593 111.705 42.071 C 70.582 69.549 38.528 108.606 19.6 154.305 C 0.671 199.997 -4.28 250.28 5.372 298.794 C 15.017 347.301 38.84 391.863 73.813 426.836 C 108.786 461.809 153.348 485.626 201.856 495.278 C 250.37 504.929 300.652 499.972 346.345 481.05 C 392.044 462.121 431.101 430.067 458.578 388.937 C 486.056 347.814 500.721 299.466 500.721 250.002 L 375.68 250.002 C 375.68 274.734 368.352 298.912 354.609 319.47 C 340.874 340.035 321.342 356.058 298.496 365.523 C 275.65 374.987 250.509 377.462 226.248 372.643 C 201.994 367.818 179.717 355.906 162.23 338.419 C 144.744 320.933 132.832 298.655 128.006 274.395 C 123.18 250.141 125.656 225 135.12 202.154 C 144.584 179.308 160.615 159.776 181.173 146.04 C 201.738 132.298 225.915 124.962 250.647 124.962 L 250.647 -0.078 Z" fill="white" style="stroke-width: 1;"/>
  <path d="M 250.647 -0.078 C 217.803 -0.078 185.284 6.391 154.943 18.962 C 124.602 31.525 97.034 49.948 73.813 73.168 C 50.593 96.396 32.17 123.964 19.6 154.305 C 7.036 184.646 0.567 217.165 0.567 250.002 L 125.607 250.002 C 125.607 233.584 128.838 217.324 135.12 202.154 C 141.409 186.983 150.617 173.199 162.23 161.585 C 173.837 149.978 187.621 140.764 202.792 134.482 C 217.962 128.2 234.222 124.962 250.647 124.962 L 250.647 -0.078 Z" fill="#5CE1E6" style="stroke-width: 1;"/>
  <circle cx="250.647" cy="250.002" r="78.148" fill="#5CE1E6" style="stroke-width: 1;"/>
  <path d="M 328.796 250.002 C 328.796 239.741 326.771 229.576 322.847 220.098 C 318.915 210.613 313.16 202.001 305.901 194.742 C 298.648 187.489 290.03 181.727 280.552 177.803 C 271.067 173.879 260.909 171.854 250.647 171.854 C 240.379 171.854 230.221 173.879 220.736 177.803 C 211.258 181.727 202.639 187.489 195.387 194.742 C 188.127 202.001 182.372 210.613 178.441 220.098 C 174.517 229.576 172.492 239.741 172.492 250.002 L 250.647 250.002 L 328.796 250.002 Z" fill="white" style="stroke-width: 1;"/>
</svg>